# xmcd
#
# Track frame offsets:
#	150
#	15470
#	26700
#	41265
#	54255
#	75447
#	86752
#	101722
#	120255
#	136140
#	150932
#	168625
#	181735
#	201292
#
# Disc length: 2874 seconds
#
# Revision: 0
# Processed by: cddbd v1.5.1PL2 Copyright (c) Steve Scherf et al.
# Submitted via: dBpowerAMP V4.0
#
DISCID=9c0b380e
DTITLE=JACÓ and JACÓZINHO - AS MELHORES DE JACÓ and JACÓZINHO E AMADO E ANTONIO
DYEAR=1995
DGENRE=Country
TTITLE0=PAPAI ME DISSE
TTITLE1=QUANTO MAIS MIO
TTITLE2=O LADRÃO EO JAPAONES
TTITLE3=AS BICHAS
TTITLE4=CAPA DO VIAJANTE
TTITLE5=FITA CASSETE
TTITLE6=MOTORISTA DE CAMINHÃO
TTITLE7=SILVÉRIO REIS
TTITLE8=BARGANHA DE MULHERES
TTITLE9=BURRO EMPACADOR
TTITLE10=ROSA DE OURO
TTITLE11=GALO CARIJÓ
TTITLE12=VELHO VALENTE
TTITLE13=O MINEIRINHO
EXTD=
EXTT0=
EXTT1=
EXTT2=
EXTT3=
EXTT4=
EXTT5=
EXTT6=
EXTT7=
EXTT8=
EXTT9=
EXTT10=
EXTT11=
EXTT12=
EXTT13=
PLAYORDER=
